<svg width="34" height="44" viewBox="0 0 34 44" fill="none" xmlns="http://www.w3.org/2000/svg">
<path d="M33.6666 43.8333H0.333313V39.6667C0.333313 36.904 1.43078 34.2545 3.38428 32.301C5.33779 30.3475 7.98731 29.25 10.75 29.25H23.25C26.0126 29.25 28.6622 30.3475 30.6157 32.301C32.5692 34.2545 33.6666 36.904 33.6666 39.6667V43.8333ZM17 25.0833C15.3585 25.0833 13.733 24.76 12.2164 24.1318C10.6999 23.5037 9.32188 22.5829 8.16114 21.4222C7.00041 20.2614 6.07967 18.8835 5.45148 17.3669C4.8233 15.8503 4.49998 14.2249 4.49998 12.5833C4.49998 10.9418 4.8233 9.31637 5.45148 7.7998C6.07967 6.28323 7.00041 4.90524 8.16114 3.74451C9.32188 2.58378 10.6999 1.66303 12.2164 1.03485C13.733 0.406665 15.3585 0.0833435 17 0.0833435C20.3152 0.0833436 23.4946 1.4003 25.8388 3.74451C28.183 6.08871 29.5 9.26814 29.5 12.5833C29.5 15.8986 28.183 19.078 25.8388 21.4222C23.4946 23.7664 20.3152 25.0833 17 25.0833Z" fill="#E0E0E0"/>
</svg>
