<svg width="34" height="44" viewBox="0 0 34 44" fill="none" xmlns="http://www.w3.org/2000/svg">
<path d="M33.6667 43.8333H0.333344V39.6666C0.333344 36.904 1.43081 34.2545 3.38431 32.301C5.33782 30.3474 7.98734 29.25 10.75 29.25H23.25C26.0127 29.25 28.6622 30.3474 30.6157 32.301C32.5692 34.2545 33.6667 36.904 33.6667 39.6666V43.8333ZM17 25.0833C15.3585 25.0833 13.733 24.76 12.2165 24.1318C10.6999 23.5036 9.32191 22.5829 8.16117 21.4221C7.00044 20.2614 6.0797 18.8834 5.45152 17.3669C4.82333 15.8503 4.50001 14.2248 4.50001 12.5833C4.50001 10.9418 4.82333 9.31634 5.45152 7.79977C6.0797 6.2832 7.00044 4.90521 8.16117 3.74448C9.32191 2.58375 10.6999 1.663 12.2165 1.03482C13.733 0.406635 15.3585 0.083313 17 0.083313C20.3152 0.083313 23.4946 1.40027 25.8388 3.74448C28.183 6.08868 29.5 9.26811 29.5 12.5833C29.5 15.8985 28.183 19.0779 25.8388 21.4221C23.4946 23.7664 20.3152 25.0833 17 25.0833Z" fill="#666666"/>
</svg>
